<svg height="512pt" viewBox="0 0 512 512" width="512pt" xmlns="http://www.w3.org/2000/svg"><path d="m51.199219 8.535156h409.601562c23.5625 0 42.664063 19.101563 42.664063 42.664063v409.601562c0 23.5625-19.101563 42.664063-42.664063 42.664063h-409.601562c-23.5625 0-42.664063-19.101563-42.664063-42.664063v-409.601562c0-23.5625 19.101563-42.664063 42.664063-42.664063zm0 0" fill="#abb1bb"/><path d="m332.800781 102.398438c0 28.277343-22.921875 51.203124-51.199219 51.203124-28.277343 0-51.203124-22.925781-51.203124-51.203124 0-28.277344 22.925781-51.199219 51.203124-51.199219v51.199219zm0 0" fill="#ffda88"/><path d="m332.800781 102.398438h-51.199219v-51.199219c28.277344 0 51.199219 22.921875 51.199219 51.199219zm0 0" fill="#a3d274"/><path d="m418.132812 51.199219v51.199219l-25.429687 44.460937c-20.164063-11.519531-30.054687-35.167969-24.085937-57.613281 5.964843-22.445313 26.292968-38.0625 49.515624-38.046875zm0 0" fill="#eb6371"/><path d="m463.957031 125.269531c-6.300781 12.59375-17.503906 22.042969-30.980469 26.128907-13.476562 4.082031-28.042968 2.441406-40.273437-4.539063l25.429687-44.460937zm0 0" fill="#a3d274"/><path d="m469.332031 102.398438c.011719 7.9375-1.828125 15.769531-5.375 22.871093l-45.824219-22.871093v-51.199219c28.277344 0 51.199219 22.921875 51.199219 51.199219zm0 0" fill="#9c83da"/><path d="m332.800781 238.933594c0 28.277344-22.921875 51.199218-51.199219 51.199218-28.277343 0-51.203124-22.921874-51.203124-51.199218s22.925781-51.199219 51.203124-51.199219v51.199219l45.824219-22.871094c3.546875 7.101562 5.386719 14.933594 5.375 22.871094zm0 0" fill="#eb6371"/><path d="m327.425781 216.0625-45.824219 22.871094v-51.199219c19.410157-.007813 37.152344 10.964844 45.824219 28.328125zm0 0" fill="#a3d274"/><path d="m469.332031 238.933594h-51.199219v-51.199219c28.277344 0 51.199219 22.921875 51.199219 51.199219zm0 0" fill="#a3d274"/><path d="m418.132812 187.734375v51.199219h-51.199218c0-28.277344 22.921875-51.199219 51.199218-51.199219zm0 0" fill="#ffda88"/><path d="m469.332031 238.933594c0 28.277344-22.921875 51.199218-51.199219 51.199218-28.277343 0-51.199218-22.921874-51.199218-51.199218zm0 0" fill="#9c83da"/><path d="m264.535156 409.601562c0 9.425782-7.644531 17.066407-17.070312 17.066407-9.425782 0-17.066406-7.640625-17.066406-17.066407 0-9.425781 7.640624-17.066406 17.066406-17.066406 1.589844.003906 3.171875.234375 4.695312.679688 5.644532 1.632812 10.058594 6.046875 11.691406 11.691406.445313 1.523438.675782 3.105469.683594 4.695312zm0 0" fill="#a3d274"/><path d="m332.800781 341.332031c-.007812 1.589844-.234375 3.171875-.683593 4.695313-1.632813 5.644531-6.046876 10.054687-11.691407 11.691406-3.0625.910156-6.324219.910156-9.386719 0-5.644531-1.636719-10.054687-6.046875-11.691406-11.691406-.445312-1.523438-.675781-3.105469-.679687-4.695313 0-9.425781 7.640625-17.066406 17.066406-17.066406s17.066406 7.640625 17.066406 17.066406zm0 0" fill="#a3d274"/><path d="m469.332031 341.332031c-.027343 9.414063-7.652343 17.039063-17.066406 17.066407-1.585937-.003907-3.167969-.234376-4.691406-.679688-5.644531-1.636719-10.058594-6.046875-11.691407-11.691406-.449218-1.523438-.675781-3.105469-.683593-4.695313 0-9.425781 7.640625-17.066406 17.066406-17.066406s17.066406 7.640625 17.066406 17.066406zm0 0" fill="#a3d274"/><path d="m401.066406 409.601562c0 9.425782-7.640625 17.066407-17.066406 17.066407s-17.066406-7.640625-17.066406-17.066407c.003906-1.589843.234375-3.171874.683594-4.695312 1.632812-5.644531 6.046874-10.058594 11.691406-11.691406 3.0625-.910156 6.320312-.910156 9.382812 0 5.644532 1.632812 10.058594 6.046875 11.691406 11.691406.449219 1.523438.679688 3.105469.683594 4.695312zm0 0" fill="#a3d274"/><path d="m76.800781 315.734375h93.867188c9.425781 0 17.066406 7.640625 17.066406 17.066406v51.199219c0 9.425781-7.640625 17.066406-17.066406 17.066406h-93.867188c-9.425781 0-17.066406-7.640625-17.066406-17.066406v-51.199219c0-9.425781 7.640625-17.066406 17.066406-17.066406zm0 0" fill="#74d7f1"/><g fill="#373737"><path d="m460.800781 0h-409.601562c-28.265625.0273438-51.1718752 22.933594-51.199219 51.199219v25.601562c0 4.710938 3.820312 8.53125 8.535156 8.53125 4.710938 0 8.53125-3.820312 8.53125-8.53125v-25.601562c0-18.851563 15.28125-34.132813 34.132813-34.132813h409.601562c18.851563 0 34.132813 15.28125 34.132813 34.132813v409.601562c0 18.851563-15.28125 34.132813-34.132813 34.132813h-409.601562c-18.851563 0-34.132813-15.28125-34.132813-34.132813v-315.734375c0-4.710937-3.820312-8.53125-8.53125-8.53125-4.714844 0-8.535156 3.820313-8.535156 8.53125v315.734375c.0273438 28.265625 22.933594 51.171875 51.199219 51.199219h409.601562c28.265625-.027344 51.171875-22.933594 51.199219-51.199219v-409.601562c-.027344-28.265625-22.933594-51.1718752-51.199219-51.199219zm0 0"/><path d="m281.601562 162.132812c32.988282 0 59.730469-26.742187 59.730469-59.734374 0-32.988282-26.742187-59.730469-59.730469-59.730469-32.992187 0-59.734374 26.742187-59.734374 59.730469.035156 32.976562 26.757812 59.699218 59.734374 59.734374zm41.8125-68.265624h-33.28125v-33.28125c16.746094 3.453124 29.828126 16.535156 33.28125 33.28125zm-50.347656-33.28125v41.8125c0 4.714843 3.820313 8.535156 8.535156 8.535156h41.8125c-4.277343 20.921875-23.363281 35.460937-44.667968 34.027344-21.308594-1.4375-38.269532-18.398438-39.707032-39.707032-1.433593-21.304687 13.105469-40.390625 34.027344-44.667968zm0 0"/><path d="m388.113281 153.957031c.136719.085938.214844.230469.351563.308594.132812.078125.324218.121094.476562.195313 14.148438 7.976562 30.945313 9.824218 46.492188 5.121093 15.546875-4.707031 28.496094-15.5625 35.84375-30.046875.09375-.160156.230468-.28125.316406-.453125.085938-.167969.050781-.296875.121094-.441406 14.300781-29.125 2.738281-64.34375-26.046875-79.320313-28.785157-14.976562-64.261719-4.234374-79.902344 24.191407-15.644531 28.429687-5.734375 64.144531 22.320313 80.445312zm30.019531-8.890625c-4.511718-.058594-8.988281-.84375-13.25-2.320312l16.664063-29.117188 30.003906 14.976563c-8.003906 10.347656-20.335937 16.421875-33.417969 16.460937zm42.667969-42.667968c-.050781 3.707031-.589843 7.390624-1.605469 10.957031l-32.527343-16.238281v-36.53125c19.851562 4.082031 34.105469 21.546874 34.132812 41.8125zm-51.199219-41.8125v39.535156l-19.535156 34.132812c-12.210937-10.625-17.320312-27.269531-13.171875-42.914062 4.148438-15.648438 16.832031-27.574219 32.707031-30.753906zm0 0"/><path d="m281.601562 298.667969c20.625.046875 39.808594-10.574219 50.714844-28.078125 10.910156-17.5 11.992188-39.402344 2.863282-57.898438-.066407-.144531-.050782-.296875-.117188-.441406-.070312-.144531-.179688-.195312-.25-.316406-13.292969-26.230469-43.699219-38.886719-71.679688-29.832032-27.976562 9.058594-45.199218 37.132813-40.601562 66.179688 4.601562 29.042969 29.660156 50.417969 59.070312 50.386719zm33.40625-85.949219-24.875 12.417969v-28.015625c9.878907 2.085937 18.695313 7.613281 24.875 15.597656zm-41.941406-15.597656v41.8125c0 2.957031 1.53125 5.699218 4.042969 7.253906 2.511719 1.558594 5.652344 1.703125 8.296875.382812l37.257812-18.59375c1.011719 3.566407 1.550782 7.25 1.601563 10.957032-.003906 22.453125-17.40625 41.058594-39.808594 42.5625-22.402343 1.503906-42.136719-14.613282-45.140625-36.863282s11.75-43.023437 33.75-47.511718zm0 0"/><path d="m418.132812 298.667969c10.484376 0 20.785157-2.757813 29.867188-7.996094 3.921875-2.425781 5.207031-7.53125 2.898438-11.527344-2.304688-3.992187-7.371094-5.429687-11.433594-3.246093-11.882813 6.863281-26.339844 7.59375-38.855469 1.957031-12.511719-5.632813-21.550781-16.941407-24.289063-30.390625h93.011719c4.714844 0 8.535157-3.820313 8.535157-8.53125 0-32.988282-26.742188-59.734375-59.734376-59.734375-32.988281 0-59.734374 26.746093-59.734374 59.734375 0 32.988281 26.746093 59.734375 59.734374 59.734375zm41.8125-68.269531h-33.277343v-33.277344c16.742187 3.449218 29.828125 16.535156 33.277343 33.277344zm-50.34375-33.277344v33.277344h-33.28125c3.453126-16.742188 16.535157-29.828126 33.28125-33.277344zm0 0"/><path d="m247.464844 435.199219c14.140625 0 25.601562-11.460938 25.601562-25.597657-.015625-3.804687-.890625-7.550781-2.558594-10.96875l34.261719-34.257812c6.90625 3.421875 15.019531 3.421875 21.929688 0l34.261719 34.257812c-1.671876 3.417969-2.546876 7.164063-2.5625 10.96875 0 14.136719 11.464843 25.597657 25.601562 25.597657s25.601562-11.460938 25.601562-25.597657c-.015624-3.804687-.890624-7.550781-2.5625-10.96875l34.261719-34.257812c3.414063 1.667969 7.164063 2.542969 10.964844 2.558594 14.140625 0 25.601563-11.460938 25.601563-25.601563 0-14.136719-11.460938-25.597656-25.601563-25.597656-14.136719 0-25.597656 11.460937-25.597656 25.597656.011719 3.804688.886719 7.550781 2.558593 10.964844l-34.261718 34.261719c-6.910156-3.425782-15.019532-3.425782-21.929688 0l-34.261718-34.261719c1.671874-3.414063 2.546874-7.160156 2.558593-10.964844 0-14.136719-11.460937-25.597656-25.597656-25.597656-14.140625 0-25.601563 11.460937-25.601563 25.597656.015626 3.804688.890626 7.550781 2.558594 10.964844l-34.257812 34.261719c-3.417969-1.667969-7.164063-2.542969-10.96875-2.558594-14.136719 0-25.597656 11.460938-25.597656 25.601562 0 14.136719 11.460937 25.597657 25.597656 25.597657zm204.800781-102.398438c3.851563.003907 7.222656 2.582031 8.230469 6.296875 1.007812 3.714844-.597656 7.644532-3.917969 9.59375-3.320313 1.949219-7.53125 1.433594-10.285156-1.257812v-.125l-.101563-.070313c-2.355468-2.457031-3.027344-6.078125-1.707031-9.214843 1.320313-3.136719 4.378906-5.191407 7.78125-5.222657zm-62.292969 70.699219.070313.101562.101562.066407c3.277344 3.351562 3.238281 8.722656-.089843 12.023437-3.328126 3.300782-8.695313 3.300782-12.023438 0-3.328125-3.300781-3.367188-8.671875-.089844-12.023437l.085938-.042969.066406-.101562c3.289062-3.242188 8.574219-3.242188 11.863281 0zm-74.238281-70.699219c3.4375-.003906 6.539063 2.054688 7.871094 5.222657 1.332031 3.171874.636719 6.828124-1.769531 9.285156h-.128907l-.070312.101562c-3.289063 3.242188-8.570313 3.242188-11.859375 0l-.015625-.101562-.105469-.070313c-2.355469-2.457031-3.023438-6.078125-1.703125-9.214843 1.320313-3.136719 4.375-5.191407 7.78125-5.222657zm-68.269531 68.265625c2.234375-.007812 4.382812.867188 5.976562 2.433594l.066406.101562.101563.066407c2.820313 2.917969 3.195313 7.417969.902344 10.761719-2.296875 3.34375-6.628907 4.609374-10.363281 3.027343-3.738282-1.582031-5.84375-5.574219-5.035157-9.550781.804688-3.976562 4.296875-6.835938 8.351563-6.839844zm0 0"/><path d="m196.265625 384v-51.199219c0-14.140625-11.460937-25.601562-25.597656-25.601562h-93.867188c-14.140625 0-25.601562 11.460937-25.601562 25.601562v51.199219c0 14.136719 11.460937 25.601562 25.601562 25.601562h93.867188c14.136719 0 25.597656-11.464843 25.597656-25.601562zm-17.066406 0c0 4.710938-3.820313 8.535156-8.53125 8.535156h-93.867188c-4.714843 0-8.535156-3.824218-8.535156-8.535156v-51.199219c0-4.714843 3.820313-8.535156 8.535156-8.535156h93.867188c4.710937 0 8.53125 3.820313 8.53125 8.535156zm0 0"/><path d="m42.667969 273.066406c0 9.425782 7.640625 17.066406 17.066406 17.066406h136.53125c4.714844 0 8.535156-3.820312 8.535156-8.53125 0-4.714843-3.820312-8.535156-8.535156-8.535156h-25.597656v-51.199218c0-4.714844-3.820313-8.535157-8.535157-8.535157-4.710937 0-8.53125 3.820313-8.53125 8.535157v51.199218h-17.066406v-102.398437c0-4.714844-3.824218-8.535157-8.535156-8.535157s-8.535156 3.820313-8.535156 8.535157v102.398437h-17.066406v-68.265625c0-4.714843-3.820313-8.535156-8.53125-8.535156-4.714844 0-8.535157 3.820313-8.535157 8.535156v68.265625h-25.597656v-119.464844c0-4.714843-3.820313-8.535156-8.535156-8.535156-4.710938 0-8.53125 3.820313-8.53125 8.535156zm0 0"/><path d="m51.199219 59.734375h93.867187c4.714844 0 8.535156-3.820313 8.535156-8.535156 0-4.710938-3.820312-8.53125-8.535156-8.53125h-93.867187c-4.710938 0-8.53125 3.820312-8.53125 8.53125 0 4.714843 3.820312 8.535156 8.53125 8.535156zm0 0"/><path d="m187.734375 59.734375c4.710937 0 8.53125-3.820313 8.53125-8.535156 0-4.710938-3.820313-8.53125-8.53125-8.53125h-8.535156c-4.710938 0-8.53125 3.820312-8.53125 8.53125 0 4.714843 3.820312 8.535156 8.53125 8.535156zm0 0"/><path d="m256 460.800781c-4.710938 0-8.535156 3.820313-8.535156 8.53125 0 4.714844 3.824218 8.535157 8.535156 8.535157h145.066406c4.714844 0 8.535156-3.820313 8.535156-8.535157 0-4.710937-3.820312-8.53125-8.535156-8.53125zm0 0"/><path d="m435.199219 460.800781c-4.710938 0-8.53125 3.820313-8.53125 8.53125 0 4.714844 3.820312 8.535157 8.53125 8.535157h8.535156c4.710937 0 8.53125-3.820313 8.53125-8.535157 0-4.710937-3.820313-8.53125-8.53125-8.53125zm0 0"/><path d="m51.199219 93.867188h68.265625c4.714844 0 8.535156-3.820313 8.535156-8.535157 0-4.710937-3.820312-8.53125-8.535156-8.53125h-68.265625c-4.710938 0-8.53125 3.820313-8.53125 8.53125 0 4.714844 3.820312 8.535157 8.53125 8.535157zm0 0"/><path d="m145.066406 435.199219c0-4.710938-3.820312-8.53125-8.53125-8.53125h-68.269531c-4.710937 0-8.53125 3.820312-8.53125 8.53125 0 4.714843 3.820313 8.535156 8.53125 8.535156h68.269531c4.710938 0 8.53125-3.820313 8.53125-8.535156zm0 0"/><path d="m170.667969 426.667969c-4.714844 0-8.535157 3.820312-8.535157 8.53125 0 4.714843 3.820313 8.535156 8.535157 8.535156h8.53125c4.714843 0 8.535156-3.820313 8.535156-8.535156 0-4.710938-3.820313-8.53125-8.535156-8.53125zm0 0"/><path d="m68.265625 460.800781c-4.710937 0-8.53125 3.820313-8.53125 8.53125 0 4.714844 3.820313 8.535157 8.53125 8.535157h59.734375c4.710938 0 8.535156-3.820313 8.535156-8.535157 0-4.710937-3.824218-8.53125-8.535156-8.53125zm0 0"/></g></svg>