<svg class="svg-icon" style="width: 1em; height: 1em;vertical-align: middle;fill: currentColor;overflow: hidden;" viewBox="0 0 1024 1024" version="1.1" xmlns="http://www.w3.org/2000/svg"><path d="M744.38 544.326s22.86 26.646 0 81.132l-47.878 100.688h-149.446s-31.404 30.7-31.404 104.478v193.36h292.596V544.326H744.38zM642.942 175.044l-77.52 95.622h-96.02l-16.296 16.34c24.268 19.864 39.024 49.022 39.288 80.206 0.792 9.998 13.302 125.574 159.532 130.99l52.724-70.296h45.632l56.158-69.768c-19.292-84.432-81.882-154.422-163.498-183.094z m-7.62 234.278c-38.056 0-68.888-30.832-68.888-68.888 0-38.01 30.832-68.842 68.888-68.842 38.012 0 68.844 30.832 68.844 68.842 0 38.056-30.832 68.888-68.844 68.888z" fill="#FFD452" /><path d="M635.3 303.764c-20.23 0-36.688 16.458-36.688 36.688 0 20.23 16.458 36.69 36.688 36.69 20.232 0 36.69-16.458 36.69-36.69 0-20.228-16.458-36.688-36.69-36.688z" fill="#F58E6F" /><path d="M559.038 132.202c-155.662 0-282.304 126.642-282.304 282.306v110.474L166.37 732.368h110.364V937.64h205.802V1024h13.214v-99.574H289.948V719.156H188.372l101.576-190.876v-113.772c0-148.378 120.714-269.092 269.092-269.092 148.376 0 269.09 120.714 269.09 269.092V1024h13.214V414.508c-0.002-155.664-126.642-282.306-282.306-282.306z" fill="#4A555F" /><path d="M635.302 297.158c-23.874 0-43.298 19.422-43.298 43.296s19.422 43.296 43.298 43.296c23.872 0 43.296-19.422 43.296-43.296-0.002-23.874-19.424-43.296-43.296-43.296z m0 73.378c-16.588 0-30.084-13.494-30.084-30.082s13.496-30.082 30.084-30.082c16.586 0 30.082 13.496 30.082 30.082s-13.496 30.082-30.082 30.082z" fill="#4A555F" /><path d="M635.302 264.984c-41.616 0-75.472 33.856-75.472 75.47s33.856 75.47 75.472 75.47c41.614 0 75.47-33.856 75.47-75.47-0.002-41.614-33.858-75.47-75.47-75.47z m0 137.724c-34.33 0-62.258-27.928-62.258-62.256s27.928-62.256 62.258-62.256c34.326 0 62.256 27.928 62.256 62.256-0.002 34.33-27.93 62.256-62.256 62.256zM594.996 795.814v83.138l-110.696 78.8 7.666 10.764 116.244-82.75v-89.952z" fill="#4A555F" /><path d="M601.602 744.012c-15.306 0-27.76 12.454-27.76 27.762s12.454 27.762 27.76 27.762c15.308 0 27.762-12.454 27.762-27.762 0.002-15.308-12.454-27.762-27.762-27.762z m0 42.31c-8.022 0-14.546-6.526-14.546-14.548s6.524-14.55 14.546-14.55c8.022 0 14.55 6.528 14.55 14.55 0 8.022-6.528 14.548-14.55 14.548zM717.826 935.372c-15.306 0-27.76 12.454-27.76 27.762s12.454 27.762 27.76 27.762c15.308 0 27.762-12.454 27.762-27.762s-12.452-27.762-27.762-27.762z m0 42.312c-8.022 0-14.546-6.528-14.546-14.55 0-8.022 6.524-14.548 14.546-14.548 8.022 0 14.55 6.526 14.55 14.548s-6.528 14.55-14.55 14.55zM635.302 206.722c-13.378 0-24.26 10.882-24.26 24.26s10.882 24.26 24.26 24.26c13.374 0 24.258-10.882 24.258-24.26s-10.884-24.26-24.258-24.26z m0 35.306a11.06 11.06 0 0 1-11.046-11.046 11.06 11.06 0 0 1 11.046-11.046 11.06 11.06 0 0 1 11.044 11.046 11.06 11.06 0 0 1-11.044 11.046zM712.53 609.54c-3.332 4.47-26.14 55.486-37.558 81.226h-136.476v13.214h145.074l1.742-3.932c13.138-29.664 35.05-78.356 37.902-82.736l-10.684-7.772zM785.468 751.886l55.442-145.432-12.35-4.708-56.306 147.708v167.588l59.01 36.436 6.942-11.244-52.738-32.562z" fill="#4A555F" /><path d="M628.694 248.634h13.214v22.956h-13.214zM652.454 432.772a24.094 24.094 0 0 0-17.154-7.104c-13.378 0-24.26 10.884-24.26 24.26 0 6.48 2.522 12.572 7.106 17.154a24.11 24.11 0 0 0 17.154 7.104c13.378 0 24.26-10.884 24.26-24.26 0-6.482-2.522-12.572-7.106-17.154z m-17.152 28.2a10.978 10.978 0 0 1-7.812-3.234 10.972 10.972 0 0 1-3.234-7.81 11.06 11.06 0 0 1 11.046-11.046 10.98 10.98 0 0 1 7.812 3.234 10.972 10.972 0 0 1 3.234 7.808 11.06 11.06 0 0 1-11.046 11.048z" fill="#4A555F" /><path d="M628.694 409.318h13.214v22.956h-13.214zM744.772 316.194c-13.378 0-24.26 10.882-24.26 24.26 0 13.376 10.884 24.258 24.262 24.258 13.374 0 24.258-10.882 24.258-24.258 0-13.378-10.882-24.26-24.26-24.26z m0.002 35.304h-0.002a11.06 11.06 0 0 1-11.046-11.044c0-6.09 4.956-11.046 11.046-11.046s11.046 4.956 11.046 11.046a11.058 11.058 0 0 1-11.044 11.044z" fill="#4A555F" /><path d="M704.164 333.846h22.956v13.214h-22.956zM525.826 316.194a24.1 24.1 0 0 0-17.154 7.106 24.086 24.086 0 0 0-7.104 17.154c0 13.378 10.882 24.26 24.26 24.26 13.378 0 24.26-10.882 24.26-24.26-0.002-13.378-10.888-24.26-24.262-24.26z m0.002 35.306a11.06 11.06 0 0 1-11.046-11.046c0-2.95 1.148-5.724 3.234-7.81a10.96 10.96 0 0 1 7.808-3.236 11.062 11.062 0 0 1 11.048 11.046 11.056 11.056 0 0 1-11.044 11.046z" fill="#4A555F" /><path d="M543.48 333.846h22.956v13.214H543.48zM797.702 518.002L711.22 733.356V941.98h13.214V735.912l85.532-212.984zM653.56 806.32v101.868l-79.718 54.296V1024h13.214v-54.53l79.718-54.294V806.32zM630.168 145.342l-78.358 96.686h-94.276l-44.318 44.396 9.352 9.336 40.446-40.518h95.094l82.326-101.58z" fill="#4A555F" /><path d="M718.948 456.534h45.046l71.246-88.518-10.294-8.284-67.28 83.588h-45.33l-62.72 83.752h185.118v-13.214h-158.716zM554.468 0h13.214v83.494h-13.214zM305.504 143.482l9.342-9.34 27.984 27.982-9.34 9.342zM264.516 102.494l9.342-9.34 27.984 27.982-9.34 9.344zM779.29 162.1l27.986-27.986 9.342 9.344-27.984 27.986zM820.276 121.114l27.986-27.986 9.344 9.344-27.986 27.986z" fill="#4A555F" /><path d="M662.818 513.858c-175.17 0-185.498-140.232-185.84-145.82 0-50.456-43.738-91.506-97.498-91.506-41.708 0-78.79 24.874-92.272 61.894l-0.156 0.494a282.848 282.848 0 0 0-10.316 75.588v110.474L166.37 732.368h110.364V937.64H495.72l0.52-120.098c0-63.29 27.866-110.912 82.824-141.546 39.844-22.208 80.372-27.1 84.106-27.51 39.316-0.18 71.246-30.308 71.246-67.312 0-37.118-32.12-67.316-71.598-67.316z m0 121.416l-0.626 0.03c-1.792 0.17-179.164 18.93-179.164 182.21l-0.464 106.912h-192.616V719.156H188.372l101.576-190.876v-113.772a269.66 269.66 0 0 1 9.766-71.802c11.66-31.69 43.682-52.96 79.766-52.96 46.474 0 84.284 35.122 84.296 78.666 0.09 1.586 11.158 158.66 199.042 158.66 32.192 0 58.386 24.27 58.386 54.102 0 29.832-26.194 54.1-58.386 54.1z" fill="#4A555F" /><path d="M662.818 542.488c-202.288 0-214.336-171.472-214.434-173.204l-0.034-0.622v-0.622c0-34.67-30.894-62.876-68.868-62.876-29.424 0-55.468 16.962-65.086 42.294a254.252 254.252 0 0 0-9.03 67.052v117.618L214.04 703.74h91.326v205.272h161.85l0.398-91.468c0-73.574 33.864-131.246 97.93-166.786 46.78-25.95 93.236-30.614 95.188-30.8l1.04-0.098h1.046c23.694 0 42.97-17.354 42.97-38.684 0-21.334-19.278-38.688-42.97-38.688z" fill="#DFDFDF" /></svg>