<svg class="svg-icon" style="width: 1em; height: 1em;vertical-align: middle;fill: currentColor;overflow: hidden;" viewBox="0 0 1024 1024" version="1.1" xmlns="http://www.w3.org/2000/svg"><path d="M441.94 615.834c-47.17 0-85.548 38.376-85.548 85.546a85.2 85.2 0 0 0 5.458 30.06l80.262 213.864c10.662 28.402 37.926 47.6 68.16 48.258V615.834H441.94zM405.022 171.082c0 48.118 47.194 87.276 105.248 87.386V83.698c-58.052 0.11-105.248 39.266-105.248 87.384z" fill="#71CCE0" /><path d="M579.098 615.834h-68.828v377.728c0.532 0.012 1.056 0.062 1.588 0.062h1.026c31.334 0 59.51-19.816 70.11-49.304l76.608-213.22a85.206 85.206 0 0 0 5.036-28.922v-0.796c0.004-47.172-38.37-85.548-85.54-85.548zM510.518 83.692l-0.248 0.004v174.77c0.084 0 0.164 0.006 0.248 0.006 58.168 0 105.496-39.204 105.496-87.392 0-48.184-47.326-87.388-105.496-87.388z" fill="#F58E6F" /><path d="M588.614 437.152l36.62-62.954 0.554-1.216c7.74-22.816 4.13-47.132-9.904-66.714-14.036-19.582-35.904-30.814-59.998-30.814h-90.736c-24.092 0-45.96 11.232-59.996 30.812-14.036 19.582-17.646 43.898-9.904 66.714l37.172 64.17-36.62 62.958-0.554 1.216c-7.74 22.816-4.128 47.132 9.906 66.714 14.036 19.582 35.902 30.812 59.996 30.812h90.738c24.092 0 45.96-11.23 59.996-30.812 14.036-19.582 17.646-43.898 9.904-66.714l-37.174-64.172z m16.384 123.084c-11.49 16.03-29.39 25.222-49.11 25.222h-90.738c-19.72 0-37.62-9.192-49.11-25.222-11.362-15.852-14.38-35.494-8.318-53.99l40.192-69.096-40.19-69.092c-6.062-18.496-3.044-38.138 8.316-53.99 11.49-16.028 29.388-25.222 49.11-25.222h90.736c19.722 0 37.622 9.194 49.112 25.222 11.36 15.852 14.378 35.492 8.316 53.988l-40.192 69.094 40.192 69.096c6.062 18.498 3.044 38.138-8.316 53.99z" fill="#4A555F" /><path d="M597.658 513.114l-44.182-75.96 44.182-75.958c3.686-12.828 1.378-26.286-6.466-37.23-8.26-11.524-21.132-18.132-35.308-18.132h-90.738c-14.176 0-27.046 6.61-35.302 18.134-7.844 10.944-10.156 24.4-6.466 37.228l44.182 75.958-44.182 75.962c-3.69 12.826-1.378 26.282 6.466 37.226 8.256 11.524 21.126 18.134 35.302 18.134h90.738c14.176 0 27.046-6.61 35.308-18.132 7.844-10.946 10.156-24.404 6.466-37.23z" fill="#FFD452" /><path d="M579.098 585.458H441.94c-63.92 0-115.924 52.002-115.924 115.922a115.48 115.48 0 0 0 7.394 40.734l80.266 213.866c15.27 40.684 54.73 68.02 98.184 68.02h1.028c44.114 0 83.776-27.892 98.694-69.41l76.608-213.216a115.59 115.59 0 0 0 6.83-39.198v-0.796c0-63.92-52.002-115.922-115.922-115.922z m102.53 116.718a102.238 102.238 0 0 1-6.04 34.67L598.98 950.062c-13.012 36.214-47.61 60.546-86.09 60.546h-1.028c-37.908 0-72.326-23.844-85.646-59.334l-80.266-213.866a102.15 102.15 0 0 1-6.54-36.028c0-56.534 45.996-102.53 102.532-102.53h137.158c56.536 0 102.53 45.994 102.53 102.53v0.796zM510.518 53.316c-74.918 0-135.872 52.83-135.872 117.766s60.952 117.766 135.872 117.766c74.92 0 135.87-52.828 135.87-117.766s-60.95-117.766-135.87-117.766z m0 222.14c-67.534 0-122.48-46.822-122.48-104.374 0-57.552 54.944-104.374 122.48-104.374 67.534 0 122.478 46.822 122.478 104.374 0 57.552-54.942 104.374-122.478 104.374z" fill="#4A555F" /><path d="M472.162 8.654a12.47 12.47 0 0 0-11.33-8.64c-5.282-0.23-10.002 2.69-12.116 7.502l-36.424 83.018 12.264 5.38L460.11 14.88l16.284 49.794 12.73-4.164-16.962-51.856zM572.602 7.514c-2.112-4.812-6.898-7.736-12.116-7.5a12.472 12.472 0 0 0-11.328 8.642l-16.978 51.906 12.73 4.164 16.302-49.842 35.554 81.03 12.264-5.382-36.428-83.018zM819.854 135.24v181.85L583.12 422.484l5.444 12.236 244.682-108.932V135.24z" fill="#4A555F" /><path d="M852.236 79.916a36.088 36.088 0 0 0-25.686-10.64c-20.03 0-36.326 16.3-36.326 36.332a36.1 36.1 0 0 0 10.636 25.688 36.088 36.088 0 0 0 25.686 10.64c20.03 0 36.326-16.3 36.326-36.332 0-9.704-3.776-18.826-10.636-25.688z m-25.69 48.628a22.776 22.776 0 0 1-16.214-6.716 22.786 22.786 0 0 1-6.716-16.22c0-12.648 10.288-22.938 22.934-22.94 6.124 0 11.884 2.384 16.216 6.716a22.786 22.786 0 0 1 6.716 16.22c-0.002 12.648-10.29 22.938-22.936 22.94zM205.468 317.072V135.24h-13.392v190.568l238.042 104.832 5.396-12.256z" fill="#4A555F" /><path d="M198.768 69.278c-20.024 0-36.318 16.296-36.318 36.326 0 20.032 16.298 36.33 36.33 36.332 9.702 0 18.824-3.778 25.682-10.64a36.086 36.086 0 0 0 10.638-25.686c-0.004-20.032-16.302-36.33-36.332-36.332z m16.22 52.55a22.762 22.762 0 0 1-16.21 6.716l-0.004 6.696v-6.696c-12.644-0.002-22.932-10.292-22.932-22.94 0-6.128 2.384-11.886 6.716-16.218s10.088-6.718 16.214-6.718c12.644 0.002 22.932 10.292 22.932 22.94 0 6.128-2.384 11.888-6.716 16.22zM395.288 520.02L192.076 609.226v190.576h13.392v-181.828l195.204-85.692z" fill="#4A555F" /><path d="M224.46 803.744a36.088 36.088 0 0 0-25.686-10.64c-20.03 0.002-36.326 16.3-36.326 36.33a36.092 36.092 0 0 0 10.638 25.69 36.088 36.088 0 0 0 25.686 10.64c20.028 0 36.322-16.298 36.326-36.332a36.104 36.104 0 0 0-10.638-25.688z m-25.688 48.628a22.776 22.776 0 0 1-16.214-6.716 22.786 22.786 0 0 1-6.716-16.22c0-12.648 10.288-22.938 22.932-22.94 6.126 0 11.884 2.384 16.214 6.716a22.784 22.784 0 0 1 6.716 16.218c-0.002 12.65-10.29 22.942-22.932 22.942zM630.044 520.02l-5.384 12.262 195.194 85.69V799.8h13.392v-190.574z" fill="#4A555F" /><path d="M826.546 793.104a36.084 36.084 0 0 0-25.686 10.64 36.092 36.092 0 0 0-10.636 25.688c0 20.032 16.298 36.33 36.33 36.332 9.702 0 18.824-3.778 25.682-10.64a36.088 36.088 0 0 0 10.636-25.686c0-20.034-16.296-36.332-36.326-36.334z m16.218 52.55a22.766 22.766 0 0 1-16.21 6.716l-0.004 6.696v-6.696c-12.644 0-22.934-10.292-22.934-22.94 0-6.126 2.384-11.886 6.716-16.22a22.774 22.774 0 0 1 16.212-6.716h0.002c12.646 0.002 22.934 10.292 22.934 22.94a22.78 22.78 0 0 1-6.716 16.22zM806.304 406.11l-200.602 71.282 4.484 12.618 192.36-68.352 124.618 132.408 9.752-9.18z" fill="#4A555F" /><path d="M978.802 546.162a36.488 36.488 0 0 0-26.464-11.432 36.188 36.188 0 0 0-24.888 9.87 36.086 36.086 0 0 0-11.414 25.352 36.098 36.098 0 0 0 9.858 25.996 36.492 36.492 0 0 0 26.464 11.432h0.002c9.284 0 18.122-3.506 24.886-9.87a36.086 36.086 0 0 0 11.414-25.352 36.098 36.098 0 0 0-9.858-25.996z m-10.732 41.596a22.84 22.84 0 0 1-15.708 6.23h-0.002a22.74 22.74 0 0 1-16.712-7.218 22.79 22.79 0 0 1-6.226-16.414 22.78 22.78 0 0 1 7.204-16.004 22.844 22.844 0 0 1 15.712-6.23c6.396 0 12.33 2.564 16.712 7.22a22.78 22.78 0 0 1 6.226 16.414 22.794 22.794 0 0 1-7.206 16.002zM217.714 406.09l-130.63 138.796 9.752 9.18 124.6-132.388 189.304 68.448 4.554-12.594z" fill="#4A555F" /><path d="M96.55 544.6a36.188 36.188 0 0 0-24.888-9.87c-9.98 0-19.626 4.168-26.464 11.432a36.088 36.088 0 0 0-9.858 25.996 36.08 36.08 0 0 0 11.412 25.35 36.18 36.18 0 0 0 24.888 9.872 36.48 36.48 0 0 0 26.464-11.432 36.098 36.098 0 0 0 9.858-25.996 36.07 36.07 0 0 0-11.412-25.352z m-8.198 42.17a22.724 22.724 0 0 1-16.712 7.218 22.838 22.838 0 0 1-15.71-6.232 22.768 22.768 0 0 1-7.204-16.002 22.782 22.782 0 0 1 6.224-16.414 22.732 22.732 0 0 1 16.712-7.22c5.862 0 11.442 2.214 15.712 6.23a22.772 22.772 0 0 1 7.204 16.004 22.774 22.774 0 0 1-6.226 16.416zM450.77 141.95a28.93 28.93 0 0 0-20.596 8.532 28.94 28.94 0 0 0-8.532 20.6c0 16.064 13.068 29.136 29.13 29.136h0.002c7.78 0 15.094-3.03 20.594-8.532a28.94 28.94 0 0 0 8.532-20.6c0-16.064-13.066-29.134-29.13-29.136z m11.13 40.268a15.634 15.634 0 0 1-11.126 4.61h-0.002c-8.678-0.002-15.738-7.064-15.738-15.744 0-4.204 1.638-8.158 4.608-11.13a15.634 15.634 0 0 1 11.126-4.61h0.002c8.678 0.002 15.738 7.064 15.738 15.744a15.638 15.638 0 0 1-4.608 11.13z" fill="#4A555F" /><path d="M444.066 193.524h13.392v79.902h-13.392zM567.244 141.95h-0.002a28.934 28.934 0 0 0-20.594 8.532 28.94 28.94 0 0 0-8.532 20.6c0 16.064 13.068 29.136 29.13 29.136h0.002c7.78 0 15.094-3.03 20.594-8.532a28.94 28.94 0 0 0 8.532-20.6c0-16.064-13.068-29.134-29.13-29.136z m11.13 40.268a15.634 15.634 0 0 1-11.126 4.61h-0.002c-8.678-0.002-15.738-7.064-15.738-15.744 0-4.204 1.636-8.158 4.61-11.13a15.626 15.626 0 0 1 11.124-4.61h0.002c8.678 0.002 15.738 7.064 15.738 15.744a15.646 15.646 0 0 1-4.608 11.13z" fill="#4A555F" /><path d="M560.54 193.524h13.392v79.902h-13.392zM503.822 223.29h13.392v-13.392h-13.392v13.392z m0 53.568h13.392v-13.392h-13.392v13.392z m0-26.784h13.392v-13.392h-13.392v13.392z m0-53.568h13.392v-13.392h-13.392v13.392z m0-120.532v13.392h13.392v-13.392h-13.392z m0 93.746h13.392v-13.392h-13.392v13.392z m0-53.568h13.392V102.76h-13.392v13.392z m0 26.784h13.392v-13.392h-13.392v13.392zM436.928 729.038v-136.252h-13.392v149.644h67.454v120.998h13.392v-134.39zM621.102 712.036v74.388h-54.412v210.02h13.394v-196.628h54.41v-87.78zM423.536 823.308h13.392v150.378h-13.392zM539.122 595.976h13.392v88.352h-13.392z" fill="#4A555F" /><path d="M627.796 659.846c-16.234 0-29.444 13.208-29.444 29.442 0 16.236 13.208 29.444 29.444 29.444 16.234 0 29.444-13.208 29.444-29.444 0.002-16.234-13.208-29.442-29.444-29.442z m0 45.494c-8.852 0-16.052-7.2-16.052-16.052 0-8.85 7.2-16.05 16.052-16.05s16.052 7.2 16.052 16.05c0 8.852-7.2 16.052-16.052 16.052zM545.818 677.632c-16.234 0-29.442 13.208-29.442 29.444 0 16.236 13.208 29.444 29.442 29.444s29.444-13.208 29.444-29.444c0-16.236-13.21-29.444-29.444-29.444z m0 45.496c-8.85 0-16.05-7.2-16.05-16.052 0-8.85 7.2-16.052 16.05-16.052 8.852 0 16.052 7.202 16.052 16.052-0.002 8.85-7.202 16.052-16.052 16.052zM497.686 856.732c-16.234 0-29.444 13.208-29.444 29.442 0 16.236 13.208 29.444 29.444 29.444 16.234 0 29.444-13.208 29.444-29.444 0-16.234-13.208-29.442-29.444-29.442z m0 45.496c-8.852 0-16.052-7.202-16.052-16.052s7.2-16.05 16.052-16.05 16.052 7.2 16.052 16.05c0 8.85-7.2 16.052-16.052 16.052zM430.232 774.334c-16.234 0-29.444 13.208-29.444 29.442 0 16.236 13.208 29.444 29.444 29.444 16.234 0 29.444-13.208 29.444-29.444 0-16.234-13.208-29.442-29.444-29.442z m0 45.494c-8.852 0-16.052-7.2-16.052-16.052 0-8.85 7.2-16.05 16.052-16.05s16.052 7.2 16.052 16.05c0 8.852-7.2 16.052-16.052 16.052zM503.822 525.318h13.392v-13.392h-13.392v13.392z m0-26.784h13.392v-13.392h-13.392v13.392z m0 80.352h13.392v-13.392h-13.392v13.392z m0-107.138h13.392v-13.392h-13.392v13.392z m0 80.354h13.392v-13.392h-13.392v13.392z m0-254.452v13.392h13.392v-13.392h-13.392z m0 66.96h13.392v-13.392h-13.392v13.392z m0-26.784h13.392v-13.392h-13.392v13.392z m0 80.354h13.392v-13.392h-13.392v13.392z m0 26.784h13.392v-13.392h-13.392v13.392z m0-53.568h13.392v-13.392h-13.392v13.392z" fill="#4A555F" /></svg>