<svg height="512" viewBox="0 0 58 58" width="512" xmlns="http://www.w3.org/2000/svg"><g id="Page-1" fill="none" fill-rule="evenodd"><g id="006---Desktop-Computer-Brain"><path id="Path" d="m58 3v40h-58v-40c0-1.65685425 1.34314575-3 3-3h52c1.6568542 0 3 1.34314575 3 3z" fill="#90bae1"/><path id="Path" d="m55.66.07c-10.84.53-55.66 4.89-55.66 40.93v-38c0-1.65685425 1.34314575-3 3-3h52c.2217165.00244648.442703.02588445.66.07z" fill="#b0d3f0"/><path id="Rectangle" d="m22 45h14v9h-14z" fill="#3f5c6c"/><path id="Path" d="m19 17h-11c-.55228475 0-1-.4477153-1-1s.44771525-1 1-1h11c.5522847 0 1 .4477153 1 1s-.4477153 1-1 1z" fill="#3b97d3"/><path id="Path" d="m22 13h-10c-1.1045695 0-2-.8954305-2-2v-3c0-.55228475.4477153-1 1-1s1 .44771525 1 1v3h10c.5522847 0 1 .4477153 1 1s-.4477153 1-1 1z" fill="#3b97d3"/><circle id="Oval" cx="11" cy="6.998" fill="#f0c419" r="2"/><circle id="Oval" cx="8" cy="15.998" fill="#f0c419" r="2"/><path id="Path" d="m18 26h-10c-.55228475 0-1-.4477153-1-1s.44771525-1 1-1h10c.5522847 0 1 .4477153 1 1s-.4477153 1-1 1z" fill="#3b97d3"/><path id="Path" d="m11 35c-.5522847 0-1-.4477153-1-1v-4c0-1.1045695.8954305-2 2-2h8c.5522847 0 1 .4477153 1 1s-.4477153 1-1 1h-8v4c0 .5522847-.4477153 1-1 1z" fill="#3b97d3"/><circle id="Oval" cx="11" cy="33.998" fill="#f0c419" r="2"/><circle id="Oval" cx="8" cy="24.998" fill="#f0c419" r="2"/><path id="Path" d="m50 17h-11c-.5522847 0-1-.4477153-1-1s.4477153-1 1-1h11c.5522847 0 1 .4477153 1 1s-.4477153 1-1 1z" fill="#3b97d3"/><path id="Path" d="m46 13h-10c-.5522847 0-1-.4477153-1-1s.4477153-1 1-1h10v-4c0-.55228475.4477153-1 1-1s1 .44771525 1 1v4c0 1.1045695-.8954305 2-2 2z" fill="#3b97d3"/><circle id="Oval" cx="47" cy="6.998" fill="#f0c419" r="2"/><circle id="Oval" cx="50" cy="15.998" fill="#f0c419" r="2"/><path id="Path" d="m50 26h-9c-.5522847 0-1-.4477153-1-1s.4477153-1 1-1h9c.5522847 0 1 .4477153 1 1s-.4477153 1-1 1z" fill="#3b97d3"/><path id="Path" d="m47 35c-.5522847 0-1-.4477153-1-1v-4h-9c-.5522847 0-1-.4477153-1-1s.4477153-1 1-1h9c1.1045695 0 2 .8954305 2 2v4c0 .5522847-.4477153 1-1 1z" fill="#3b97d3"/><circle id="Oval" cx="47" cy="33.998" fill="#f0c419" r="2"/><circle id="Oval" cx="50" cy="24.998" fill="#f0c419" r="2"/><path id="Path" d="m58 41v4c-.0032948 1.1032019-.8967981 1.9967052-2 2h-54c-1.10320187-.0032948-1.9967052-.8967981-2-2v-4z" fill="#547580"/><path id="Path" d="m31 45h-4c-.5522847 0-1-.4477153-1-1s.4477153-1 1-1h4c.5522847 0 1 .4477153 1 1s-.4477153 1-1 1z" fill="#d1d4d1"/><path id="Path" d="m45 56v1c0 .5522847-.4477153 1-1 1h-30c-.5522847 0-1-.4477153-1-1v-1c0-2.209139 1.790861-4 4-4h24c2.209139 0 4 1.790861 4 4z" fill="#547580"/><path id="Path" d="m42.9 24.379c.0640379.2619244.0975938.5303716.1.8.0009698 1.663381-1.2812534 3.0459142-2.94 3.17.5622894 1.0853632.5175936 2.3854453-.1179079 3.4296294-.6355015 1.0441842-1.7697247 1.6811683-2.9920921 1.6803706-.7595763 1.8168107-2.6949816 2.8459084-4.6259432 2.4597161s-3.3216828-2.0805154-3.3240568-4.0497161v-24.5s0-4.369 5.51-1.24c.7284641.42401032 1.4328769.88805478 2.11 1.39.01.01.02.01.03.02h.01c.9559715.34410045 1.6568125 1.1706357 1.84 2.17.031975.1715188.0487069.345531.05.52.0002599.5703211-.1704163 1.127631-.49 1.6.0601734-.0016565.1203804.0016884.18.01 1.1310981.0953263 2.160788.6900249 2.8086112 1.6221167.6478231.9320919.8463065 2.1044962.5413888 3.1978833.8585638.7556047 1.3677009 1.8316981 1.4074416 2.9747164.0397407 1.1430184-.3934296 2.2518741-1.1974416 3.0652836l.01.01c.5327333.4256336.914802 1.011005 1.09 1.67z" fill="#ff5364"/><g fill="#df4d60"><path id="Path" d="m38.55 10.229c.0002599.5703211-.1704163 1.127631-.49 1.6h-.01c-1.2649904.4602822-2.2658196 1.4501534-2.74 2.71-.1516384.3748601-.515631.6201595-.92.62-.1311833.0034547-.2613445-.0239476-.38-.08-.2458579-.0985113-.4416835-.2918845-.5432853-.5364815-.1016018-.2445969-.1004176-.519805.0032853-.7635185.8749743-2.1241214 2.7700592-3.6575202 5.03-4.07.031975.1715188.0487069.345531.05.52z"/><path id="Path" d="m42.9 24.379c-1.2011362.7836041-2.6058769 1.1973767-4.04 1.19-.5522847 0-1-.4477153-1-1s.4477153-1 1-1c1.0457624.0043164 2.0703863-.2943875 2.95-.86.5327333.4256336.914802 1.011005 1.09 1.67z"/><path id="Path" d="m36.62 7.519c-1.1548299.13667327-2.1532295.86933909-2.63 1.93-.1610883.35835904-.5171006.5891802-.91.59-.1415698.0000282-.2814581-.0306789-.41-.09-.2426593-.10723827-.4321883-.30729543-.5261643-.5553923-.0939761-.24809686-.0845515-.52351525.0261643-.7646077.4886177-1.06479598 1.3097988-1.94212623 2.34-2.5.7284641.42401032 1.4328769.88805478 2.11 1.39z"/><path id="Path" d="m32.212 23.032c-.1959624-.0209818-.3929178-.0313303-.59-.031-.5522847 0-1 .4477153-1 1s.4477153 1 1 1c.1252646.0000738.2504382.0067497.375.02.8464823.0505691 1.5827974.5973105 1.876 1.393.2879721.8547648.0583482 1.7989471-.59 2.426-.8378082.8388492-1.3107296 1.9744356-1.316 3.16 0 .5522847.4477153 1 1 1s1-.4477153 1-1c.0063815-.6618818.2733323-1.2945876.743-1.761 1.1890503-1.1717877 1.5963203-2.9239052 1.046-4.5-.5488781-1.5187972-1.934305-2.5770226-3.544-2.707z"/><path id="Path" d="m38.781 17.359c-.1963576-.178433-.4555761-.271519-.7205892-.2587653-.2650131.0127536-.514095.1303013-.6924108.3267653-1.227326 1.274964-3.252368 1.3240289-4.54.11-.3923789-.3789722-1.0160848-.3735524-1.4018186.0121814s-.3911536 1.0094397-.0121814 1.4018186c.8508794.8453243 1.9735105 1.362181 3.169 1.459.3554821 1.0244421 1.1256797 1.8519872 2.122 2.28.3291609.1439718.710256.1003052.9983203-.1143893s.4388199-.5674168.394921-.9239944c-.043899-.3565777-.2757051-.662202-.6072413-.8006163-.3254032-.1419893-.6031067-.374566-.8-.67.8278079-.2789527 1.5710944-.7638095 2.16-1.409.1781851-.1966147.2709229-.4559863.2577939-.721005-.013129-.2650188-.1310483-.5139543-.3277939-.691995z"/></g><path id="Path" d="m15.1 24.379c-.0640379.2619244-.0975938.5303716-.1.8-.0009698 1.663381 1.2812534 3.0459142 2.94 3.17-.5622894 1.0853632-.5175936 2.3854453.1179079 3.4296294.6355015 1.0441842 1.7697247 1.6811683 2.9920921 1.6803706.7595763 1.8168107 2.6949816 2.8459084 4.6259432 2.4597161s3.3216828-2.0805154 3.3240568-4.0497161v-24.5s0-4.369-5.51-1.24c-.7284641.42401032-1.4328769.88805478-2.11 1.39-.01.01-.02.01-.03.02h-.01c-.9559715.34410045-1.6568125 1.1706357-1.84 2.17-.031975.1715188-.0487069.345531-.05.52-.0002599.5703211.1704163 1.127631.49 1.6-.0601734-.0016565-.1203804.0016884-.18.01-1.1310981.0953263-2.160788.6900249-2.8086112 1.6221167-.6478231.9320919-.8463065 2.1044962-.5413888 3.1978833-.8585638.7556047-1.3677009 1.8316981-1.4074416 2.9747164-.0397407 1.1430184.3934296 2.2518741 1.1974416 3.0652836l-.01.01c-.5327333.4256336-.914802 1.011005-1.09 1.67z" fill="#fb7b76"/><path id="Path" d="m19.45 10.229c-.0002599.5703211.1704163 1.127631.49 1.6h.01c1.2649904.4602822 2.2658196 1.4501534 2.74 2.71.1516384.3748601.515631.6201595.92.62.1311833.0034547.2613445-.0239476.38-.08.2458579-.0985113.4416835-.2918845.5432853-.5364815.1016018-.2445969.1004176-.519805-.0032853-.7635185-.8749743-2.1241214-2.7700592-3.6575202-5.03-4.07-.031975.1715188-.0487069.345531-.05.52z" fill="#df4d60"/><path id="Path" d="m15.1 24.379c1.2011362.7836041 2.6058769 1.1973767 4.04 1.19.5522847 0 1-.4477153 1-1s-.4477153-1-1-1c-1.0457624.0043164-2.0703863-.2943875-2.95-.86-.5327333.4256336-.914802 1.011005-1.09 1.67z" fill="#df4d60"/><path id="Path" d="m21.38 7.519c1.1548299.13667327 2.1532295.86933909 2.63 1.93.1610883.35835904.5171006.5891802.91.59.1415698.0000282.2814581-.0306789.41-.09.2426593-.10723827.4321883-.30729543.5261643-.5553923.0939761-.24809686.0845515-.52351525-.0261643-.7646077-.4886177-1.06479598-1.3097988-1.94212623-2.34-2.5-.7284641.42401032-1.4328769.88805478-2.11 1.39z" fill="#df4d60"/><path id="Path" d="m25.788 23.032c.1959624-.0209818.3929178-.0313303.59-.031.5522847 0 1 .4477153 1 1s-.4477153 1-1 1c-.1252646.0000738-.2504382.0067497-.375.02-.8464823.0505691-1.5827974.5973105-1.876 1.393-.2879721.8547648-.0583482 1.7989471.59 2.426.8378082.8388492 1.3107296 1.9744356 1.316 3.16 0 .5522847-.4477153 1-1 1s-1-.4477153-1-1c-.0063815-.6618818-.2733323-1.2945876-.743-1.761-1.1890503-1.1717877-1.5963203-2.9239052-1.046-4.5.5488781-1.5187972 1.934305-2.5770226 3.544-2.707z" fill="#df4d60"/><path id="Path" d="m19.219 17.359c.1963576-.178433.4555761-.271519.7205892-.2587653.2650131.0127536.514095.1303013.6924108.3267653 1.227326 1.274964 3.252368 1.3240289 4.54.11.3923789-.3789722 1.0160848-.3735524 1.4018186.0121814s.3911536 1.0094397.0121814 1.4018186c-.8508794.8453243-1.9735105 1.362181-3.169 1.459-.3543471 1.0234647-1.1225801 1.8508485-2.117 2.28-.3291609.1439718-.710256.1003052-.9983203-.1143893s-.4388199-.5674168-.394921-.9239944c.043899-.3565777.2757051-.662202.6072413-.8006163.3254032-.1419893.6031067-.374566.8-.67-.8278079-.2789527-1.5710944-.7638095-2.16-1.409-.1788057-.1959714-.2724146-.4549607-.260224-.7199657.0121906-.2650051.1291816-.5143064.325224-.6930343z" fill="#df4d60"/><path id="Path" d="m30 14.728c-.5522847 0-1-.4477153-1-1-.0005511-.5017984-.4072016-.9084489-.909-.909-.5522847 0-1-.4477153-1-1s.4477153-1 1-1c1.6059109.0016536 2.9073464 1.3030891 2.909 2.909 0 .5522847-.4477153 1-1 1z" fill="#ff5364"/><path id="Path" d="m28 17.91c-.5522847 0-1-.4477153-1-1 .0011024-1.6063014 1.3026991-2.9083455 2.909-2.91.5522847 0 1 .4477153 1 1s-.4477153 1-1 1c-.5021886.0005519-.9090003.4078111-.909.91 0 .5522847-.4477153 1-1 1z" fill="#fb7b76"/></g></g></svg>