<svg class="svg-icon" style="width: 1em; height: 1em;vertical-align: middle;fill: currentColor;overflow: hidden;" viewBox="0 0 1024 1024" version="1.1" xmlns="http://www.w3.org/2000/svg"><path d="M889.96852 815.358l-195.078-0.002a7.36 7.36 0 0 1-7.36-7.36V641.36c0-1.184 0.286-2.35 0.832-3.4l95.324-183.07c9.646-18.532 28.602-30.044 49.466-30.044 19.236 0 36.858 9.72 47.144 26.002 0.08 0.124 0.158 0.25 0.234 0.374 2.404-29.474-1.744-65.286-21.28-104.246L750.92052 89.636c-12.098-28.74 0.662-61.292 29.048-74.106 28.252-12.748 60.992-0.884 74.542 27.03l145.352 299.356a239.946 239.946 0 0 1 4.468 200.026l-107.004 248.002v18.054a7.36 7.36 0 0 1-7.358 7.36z m-187.718-14.724l180.356 0.002v-12.216c0-1.004 0.206-1.996 0.602-2.916l107.604-249.396a225.238 225.238 0 0 0-4.19-187.762L841.27052 48.99c-10.046-20.688-34.302-29.494-55.244-20.044-21.052 9.502-30.512 33.652-21.538 54.976l108.126 256.896c31.134 62.054 25.546 117.132 14.736 153.256a56.416 56.416 0 0 1-3.832 10.7l-74.484 156.602a7.354 7.354 0 0 1-9.808 3.486 7.356 7.356 0 0 1-3.486-9.808l66.218-139.228a580.194 580.194 0 0 0 10.514-23.45c0.216-0.688 0.432-1.384 0.642-2.09 2.574-10.696 0.77-22.03-5.264-31.58-7.574-11.988-20.544-19.144-34.7-19.144-15.354 0-29.306 8.478-36.408 22.12l-94.494 181.476v157.476z" fill="#4A555F" /><path d="M988.61652 446.794c0 28.024-5.642 55.308-16.768 81.094L865.49852 779.1l-142.586 0.002-0.002-130.862 92.15-176.972a20.34 20.34 0 0 1 18.092-10.996c7.15 0 13.44 3.476 17.254 9.536 2.106 3.338 3.218 7.092 3.218 10.862 0 3.026-0.69 6.01-2.05 8.868l-76.588 161.03 50.596 24.164 58.34-123.28c14.372-21.372 33.328-55.59 33.328-106.486 0-34.094-8.612-71.842-25.6-112.198L783.52452 75.876a21.788 21.788 0 0 1-1.732-8.492c0-8.39 4.992-16.068 12.72-19.558 10.676-4.816 23.054-0.326 28.178 10.23l145.354 299.354c13.458 27.718 20.572 58.626 20.572 89.384z" fill="#DFDFDF" /><path d="M974.27652 1013.586h-362.2a7.36 7.36 0 0 1-7.36-7.36v-198.23a7.36 7.36 0 0 1 7.36-7.36l362.2 0.002a7.36 7.36 0 0 1 7.36 7.36v198.228a7.36 7.36 0 0 1-7.36 7.36z m-354.84-14.72h347.478V815.36l-347.478-0.002v183.508z" fill="#4A555F" /><path d="M639.25652 835.176h307.838v143.868H639.25652z" fill="#FFD452" /><path d="M684.47452 973.388c-20.268 0-36.758-16.518-36.758-36.82s16.49-36.818 36.758-36.818c20.27 0 36.76 16.518 36.76 36.82s-16.49 36.818-36.76 36.818z m0-58.916c-12.15 0-22.036 9.912-22.036 22.096 0 12.186 9.886 22.098 22.036 22.098 12.152 0 22.04-9.912 22.04-22.096 0-12.186-9.886-22.098-22.04-22.098zM134.03252 815.358a7.36 7.36 0 0 1-7.36-7.36v-18.056l-107.004-248a239.946 239.946 0 0 1 4.468-200.026L169.49052 42.56C183.04252 14.646 215.78052 2.772 244.03252 15.53c28.386 12.814 41.146 45.364 29.048 74.106L164.95252 346.532c-19.67 39.252-23.862 75.164-21.474 104.674 0.074-0.12 0.148-0.24 0.226-0.36 10.286-16.282 27.91-26.002 47.144-26.002 20.864 0 39.82 11.514 49.466 30.046l95.324 183.068c0.546 1.05 0.832 2.216 0.832 3.4v166.636a7.36 7.36 0 0 1-7.36 7.36l-195.078 0.004zM220.52652 25.16c-15.62 0-30.478 8.762-37.796 23.832L37.37852 348.348a225.222 225.222 0 0 0-4.19 187.762l107.604 249.396c0.396 0.92 0.602 1.912 0.602 2.916v12.216l180.356-0.002V643.16l-94.494-181.472c-7.102-13.646-21.054-22.122-36.408-22.122-14.156 0-27.126 7.158-34.7 19.144-6.034 9.55-7.838 20.882-5.264 31.58 0.21 0.702 0.426 1.402 0.642 2.09 0.752 1.798 4.952 11.758 10.514 23.45l66.218 139.228a7.36 7.36 0 1 1-13.294 6.322L140.48052 504.774a56.504 56.504 0 0 1-3.832-10.7c-10.812-36.126-16.394-91.214 14.94-153.698l107.924-256.452c8.976-21.322-0.486-45.472-21.538-54.976a42.32 42.32 0 0 0-17.448-3.788z" fill="#4A555F" /><path d="M35.38452 446.794c0 28.024 5.642 55.308 16.768 81.094L158.50252 779.1l142.586 0.002 0.002-130.862-92.15-176.972a20.34 20.34 0 0 0-18.092-10.996c-7.15 0-13.44 3.476-17.254 9.536-2.106 3.338-3.218 7.092-3.218 10.862 0 3.026 0.69 6.01 2.05 8.868l76.588 161.03-50.596 24.164-58.34-123.28c-14.372-21.372-33.328-55.59-33.328-106.486 0-34.094 8.612-71.842 25.6-112.198l108.126-256.894c1.15-2.732 1.732-5.59 1.732-8.492 0-8.39-4.992-16.068-12.72-19.558-10.676-4.816-23.054-0.326-28.178 10.23L55.95652 357.41c-13.458 27.718-20.572 58.626-20.572 89.384z" fill="#DFDFDF" /><path d="M411.92452 1013.586h-362.2a7.36 7.36 0 0 1-7.36-7.36v-198.228a7.36 7.36 0 0 1 7.36-7.36l362.2-0.002a7.36 7.36 0 0 1 7.36 7.36v198.23a7.356 7.356 0 0 1-7.36 7.36z m-354.838-14.72h347.478v-183.51l-347.478 0.002v183.508z" fill="#4A555F" /><path d="M76.90652 835.176h307.838v143.868H76.90652z" fill="#FFD452" /><path d="M339.52452 973.388c-20.27 0-36.76-16.516-36.76-36.818s16.49-36.82 36.76-36.82 36.76 16.516 36.76 36.818-16.49 36.82-36.76 36.82z m0-58.916c-12.152 0-22.038 9.912-22.038 22.098 0 12.184 9.886 22.096 22.038 22.096 12.152 0 22.038-9.912 22.038-22.098 0-12.184-9.886-22.096-22.038-22.096z" fill="#4A555F" /><path d="M333.17452 421.366c-19.95 0-36.122-16.172-36.122-36.122V314.36c0-19.95 16.172-36.122 36.122-36.122s36.122 16.172 36.122 36.122v70.882c0 19.95-16.174 36.124-36.122 36.124zM719.81252 427.978c-19.95 0-36.122-16.172-36.122-36.122V314.36c0-19.95 16.172-36.122 36.122-36.122s36.122 16.172 36.122 36.122v77.494c0 19.952-16.174 36.124-36.122 36.124z" fill="#F58E6F" /><path d="M333.17452 428.726c-23.978 0-43.484-19.506-43.484-43.484v-70.88c0-23.978 19.506-43.484 43.484-43.484 23.974 0 43.482 19.506 43.482 43.484v70.88c-0.002 23.978-19.508 43.484-43.482 43.484z m0-143.126c-15.86 0-28.762 12.902-28.762 28.762v70.88c0 15.86 12.902 28.762 28.762 28.762 15.858 0 28.76-12.902 28.76-28.762v-70.88c0-15.86-12.904-28.762-28.76-28.762zM719.81252 435.338c-23.978 0-43.484-19.506-43.484-43.484V314.36c0-23.978 19.506-43.484 43.484-43.484s43.484 19.506 43.484 43.484v77.494c0 23.978-19.508 43.484-43.484 43.484z m0-149.738c-15.86 0-28.762 12.902-28.762 28.762v77.494c0 15.86 12.902 28.762 28.762 28.762s28.762-12.902 28.762-28.762v-77.494c0-15.86-12.904-28.762-28.762-28.762z" fill="#4A555F" /><path d="M727.17252 278.238h-14.722v-31.23c0-102.536-83.422-185.958-185.958-185.958s-185.958 83.422-185.958 185.958v31.23h-14.722v-31.23c0-110.654 90.024-200.68 200.68-200.68s200.68 90.024 200.68 200.68v31.23zM656.74852 526.278h-162.384a7.36 7.36 0 0 1-7.36-7.36v-49.974a7.36 7.36 0 0 1 7.36-7.36h64.256a7.36 7.36 0 0 1 7.36 7.36v42.614h90.768c30.716 0 55.704-24.988 55.704-55.704v-27.876h14.722v27.876c-0.002 38.832-31.594 70.424-70.426 70.424z m-155.024-14.72h49.534v-35.254h-49.534v35.254z" fill="#4A555F" /><path d="M613.41852 259.678c0-14.182 10.55-25.86 24.29-27.528a109.554 109.554 0 0 0-12.12-29.246c-10.894 8.49-26.694 7.704-36.656-2.306-10.01-10.01-10.844-25.762-2.354-36.656a107.076 107.076 0 0 0-29.198-12.12c-1.668 13.692-13.346 24.29-27.528 24.29-14.182 0-25.862-10.598-27.53-24.29a107.138 107.138 0 0 0-29.198 12.12c8.488 10.894 7.656 26.646-2.356 36.656-9.962 10.06-25.762 10.796-36.656 2.258a111.472 111.472 0 0 0-12.12 29.296 27.702 27.702 0 0 1 24.338 27.528c0 14.182-10.598 25.812-24.338 27.53a110.572 110.572 0 0 0 12.12 29.246c10.894-8.538 26.646-7.754 36.656 2.258 10.06 10.06 10.844 25.812 2.306 36.656a109.05 109.05 0 0 0 29.246 12.17c1.668-13.74 13.346-24.388 27.53-24.388 14.182 0 25.86 10.648 27.528 24.388a109.024 109.024 0 0 0 29.246-12.17c-8.49-10.844-7.704-26.596 2.306-36.656 9.962-9.962 25.762-10.796 36.656-2.306 5.398-8.98 9.47-18.794 12.12-29.198-13.738-1.72-24.288-13.348-24.288-27.532z m-83.568 38.67c-21.346 0-38.718-17.322-38.718-38.668 0-21.394 17.372-38.716 38.718-38.716 21.394 0 38.718 17.322 38.718 38.716-0.002 21.346-17.324 38.668-38.718 38.668z" fill="#71CCE0" /><path d="M557.37852 374.898a7.36 7.36 0 0 1-7.308-6.474 20.386 20.386 0 0 0-20.22-17.916c-10.288 0-18.982 7.7-20.22 17.916a7.368 7.368 0 0 1-9.124 6.248 116.174 116.174 0 0 1-31.224-12.994 7.366 7.366 0 0 1-1.992-10.862c6.32-8.03 5.578-19.592-1.728-26.898-7.276-7.28-18.848-7.994-26.912-1.67a7.354 7.354 0 0 1-10.864-2.028 117.746 117.746 0 0 1-12.93-31.196 7.36 7.36 0 0 1 6.22-9.12c10.2-1.278 17.892-9.97 17.892-20.226 0-10.292-7.68-18.984-17.864-20.22a7.368 7.368 0 0 1-6.248-9.124 118.74 118.74 0 0 1 12.92-31.232 7.366 7.366 0 0 1 10.874-2.042c8.106 6.352 19.664 5.652 26.886-1.644 7.31-7.31 8.066-18.886 1.78-26.954a7.36 7.36 0 0 1 2.016-10.832 114.352 114.352 0 0 1 31.204-12.95 7.36 7.36 0 0 1 9.09 6.252c1.238 10.156 9.932 17.818 20.222 17.818s18.984-7.66 20.222-17.818a7.36 7.36 0 0 1 9.09-6.252 114.478 114.478 0 0 1 31.204 12.95 7.366 7.366 0 0 1 2.016 10.832c-6.284 8.068-5.53 19.642 1.754 26.93 7.256 7.288 18.824 8.02 26.926 1.706a7.364 7.364 0 0 1 10.842 2.028 117.12 117.12 0 0 1 12.936 31.208 7.36 7.36 0 0 1-6.248 9.124c-10.156 1.232-17.818 9.924-17.818 20.22 0 10.258 7.672 18.952 17.844 20.226a7.362 7.362 0 0 1 6.22 9.12c-2.828 11.098-7.184 21.586-12.946 31.176a7.362 7.362 0 0 1-10.832 2.014c-8.082-6.3-19.654-5.568-26.926 1.706-7.264 7.3-8.008 18.876-1.716 26.912a7.364 7.364 0 0 1-2.004 10.848 116.19 116.19 0 0 1-31.224 12.994 7.404 7.404 0 0 1-1.81 0.224z m-74.096-22.296a101.692 101.692 0 0 0 13.792 5.734c5.092-13.298 17.976-22.55 32.776-22.55 14.8 0 27.684 9.252 32.776 22.55a101.646 101.646 0 0 0 13.808-5.744c-5.75-12.95-3.16-28.58 7.282-39.072 10.464-10.468 26.102-13.058 39.09-7.3a101.058 101.058 0 0 0 5.712-13.79c-13.244-5.122-22.46-18-22.46-32.752a35.128 35.128 0 0 1 22.456-32.77 102.582 102.582 0 0 0-5.716-13.808c-13.01 5.77-28.65 3.178-39.082-7.31-10.454-10.456-13.064-26.094-7.318-39.07a99.84 99.84 0 0 0-13.77-5.722 35.14 35.14 0 0 1-65.552 0 99.74 99.74 0 0 0-13.77 5.722 35.214 35.214 0 0 1-7.332 39.082c-10.404 10.504-26.042 13.094-39.06 7.276a104.004 104.004 0 0 0-5.72 13.828c13.27 5.094 22.498 17.976 22.498 32.774 0 14.754-9.234 27.632-22.506 32.754a102.92 102.92 0 0 0 5.72 13.808c12.978-5.774 28.614-3.196 39.068 7.268 10.498 10.496 13.094 26.134 7.308 39.092z m46.568-46.894c-25.408 0-46.078-20.65-46.078-46.028 0-25.408 20.67-46.078 46.078-46.078s46.078 20.67 46.078 46.078c0 25.378-20.67 46.028-46.078 46.028z m0-77.386c-17.29 0-31.358 14.068-31.358 31.358 0 17.264 14.068 31.306 31.358 31.306s31.358-14.044 31.358-31.306c-0.002-17.292-14.068-31.358-31.358-31.358z" fill="#4A555F" /></svg>